<svg height="512" viewBox="0 0 56 54" width="512" xmlns="http://www.w3.org/2000/svg"><g id="001---Alien-Skull" transform="translate(0 -1)"><path id="Shape" d="m36.2 46.41c-.5100459.2707973-1.0552655.4693649-1.62.59l-.58 2.43c-.1187412.5522847-.6627153.9037412-1.215.785s-.9037412-.6627153-.785-1.215l.4-1.59-1 .1-.4 1.76c-.1491169.5522847-.7177153.8791169-1.27.73s-.8791169-.7177153-.73-1.27l.32-1.14c-1 0-1.61 0-2.72 0l.4 1.14c.103974.513085-.2053723 1.0195198-.7093335 1.1612588-.5039611.1417391-1.031943-.1291971-1.2106665-.6212588l-.51-1.81-1-.1.43 1.64c.1087346.5260968-.2176311 1.0441035-.7391219 1.1731322-.5214908.1290286-1.051749-.1770299-1.2008781-.6931322l-.64-2.48c-.5654036-.1132665-1.1111869-.3086705-1.62-.58-.0718817.049445-.1220053.1246304-.14.21-.5617121 2.3061629.2653243 4.7287553 2.12 6.21 3.6761301 2.7936775 8.7638699 2.7936775 12.44 0 1.8546757-1.4812447 2.6817121-3.9038371 2.12-6.21-.0227696-.0860568-.0716862-.1629258-.14-.22z"/><path id="Shape" d="m28 25c1.65 0 3-1 3-2.22s-1.37-2.21-3-2.21-3 1-3 2.21 1.35 2.22 3 2.22z"/><path id="Shape" d="m11.42 36.78c-2.0619041 1.6927127-4.01573123 3.5129448-5.85 5.45-.91970786.9138955-2.19984646 1.3687298-3.49 1.24-.64769691-.081348-1.28901772.1923703-1.67836558.7163331-.38934786.5239628-.46639446 1.2169836-.20163442 1.8136669.26955689.5386593.78207827.9144961 1.37685435 1.0096603.59477609.0951642 1.19897714-.101997 1.62314565-.5296603.39212218-.3921221 1.02787781-.3921221 1.41999996 0 .39212216.3921222.39212218 1.0278778.00000004 1.42-.63043246.6273367-.71168402 1.6197417-.19168754 2.3412679.51999647.7215262 1.48714685.9583588 2.28168754.5587321.68176829-.3267492 1.08275088-1.0485179 1-1.8-.12268745-1.2900439.35271294-2.5651489 1.29-3.46 1.9819264-2.0913682 4.103465-4.0458565 6.35-5.85-2.12-.14-3.69-.8-3.93-2.91z"/><ellipse id="Oval" cx="20" cy="29.79" rx="3" ry="2.21"/><path id="Shape" d="m49.3 9.78c.9155637-.92123986 2.1977477-1.38047482 3.49-1.25.6479526.08398761 1.2905382-.18973569 1.6788974-.71516279.3883592-.52542711.4615023-1.22004271.1911026-1.81483721-.2769822-.51724435-.780674-.87449878-1.3604058-.96489764-.5797318-.09039885-1.1682808.09654007-1.5895942.50489764-.3921222.39212214-1.0278778.39212212-1.42-.00000004-.3921221-.39212215-.3921221-1.02787778 0-1.41999996.4395638-.44366652.6240671-1.08001445.49-1.69-.1480131-.53509365-.5273209-.9760937-1.0342578-1.20247394-.506937-.22638024-1.0884983-.21447062-1.5857422.03247394-.6817683.32674923-1.0827509 1.04851789-1 1.8.1278024 1.28682824-.340041 2.56142519-1.27 3.46-1.19 1.17-.39.43-3.42 3.09 1.148046 1.1309738 2.1370932 2.4126983 2.94 3.81 1.3568662-1.1473559 2.6551726-2.3622235 3.89-3.64z"/><path id="Shape" d="m3.21 8.53c1.29067725-.13306767 2.57262279.32240868 3.49 1.24 1.23460389 1.2689643 2.53647936 2.4706955 3.9 3.6.8029068-1.3973017 1.791954-2.6790262 2.94-3.81-3-2.62-2.18-1.88-3.42-3.08-.93321424-.90476249-1.40109382-2.18682624-1.27-3.48.08412013-.75432693-.31663681-1.479697-1-1.81-.50140297-.24644157-1.08673251-.25578435-1.59574525-.0254706s-.88838398.67615612-1.03425475 1.2154706c-.13793155.61010705.04710606 1.24829798.49 1.69.39212217.39212217.39212217 1.02787783 0 1.42s-1.02787783.39212217-1.42 0c-.42275089-.42840075-1.02585842-.62713782-1.62047376-.53398142-.59461533.0931564-1.10804708.46681797-1.37952624 1.00398142-.2915137.60746957-.22146482 1.32658551.18180322 1.86637658.40326804.53979108 1.07299623.81089757 1.73819678.70362342z"/><ellipse id="Oval" cx="36" cy="29.79" rx="3" ry="2.21"/><path id="Shape" d="m55.79 44.45c-.3599964-.6845659-1.1007697-1.0807014-1.87-1-1.2903279.1301677-2.5710641-.3248789-3.49-1.24-1.833451-1.9378795-3.7873315-3.7581613-5.85-5.45-.24 2.12-1.82 2.78-3.92 2.91 2.2442962 1.8102903 4.3625425 3.7715057 6.34 5.87.9385637.8940092 1.4142037 2.1697567 1.29 3.46-.0858749.7521079.3160499 1.4755726 1 1.8.7852412.4315561 1.7683321.2198533 2.3063438-.4966576s.4671068-1.7196352-.1663438-2.3533424c-.3921221-.3921222-.3921221-1.0278778 0-1.42.3921222-.3921221 1.0278778-.3921221 1.42 0 .6316301.6196972 1.6161741.6986944 2.3385329.1876379.7223588-.5110566.9755821-1.4657532.6014671-2.2676379z"/><path id="Shape" d="m42.38 34.67c-1.38-5.56 4.62-5.08 3.47-13.79s-7.85-14.88-17.85-14.88c-9.85 0-16.71 6.12-17.85 14.88s4.85 8.12 3.47 13.79c-.31 1.24-.31 2.09 0 2.48.46.59 2.08.59 3.79.59 3.85 0 5 3.49 3.34 6.9.2334416.1299454.4819721.230701.74.3l.51-2.18c.1491291-.5161023.6793873-.8221608 1.2008781-.6931322.5214908.1290287.8478565.6470354.7391219 1.1731322l-.52 2.09 1 .12.58-2.65c.0714531-.3572656.3280774-.6492728.6732051-.7660254.3451276-.1167526.7263255-.040513 1 .2s.398248.6087598.3267949.9660254l-.48 2.38c1.13.05 1.77.05 3 0l-.52-2.38c-.0714531-.3572656.0531204-.7255124.3267949-.9660254s.6548724-.3167526 1-.2c.3451277.1167526.601752.4087598.6732051.7660254l.53 2.65 1-.12-.53-2.09c-.0857437-.3572656.0256247-.7331364.2921539-.9860254.2665292-.2528891.6477271-.3443765 1-.24.352273.1043765.6221024.3887598.7078461.7460254l.55 2.18c.2578377-.0698647.506301-.170593.74-.3-1.63-3.39-.53-6.9 3.34-6.9 1.71 0 3.33 0 3.79-.59.27-.38.27-1.24-.04-2.48zm-18.38-26.67c.5522847 0 1 .44771525 1 1s-.4477153 1-1 1-1-.44771525-1-1 .4477153-1 1-1zm4 10.57c2.76 0 5 1.89 5 4.21s-2.24 4.22-5 4.22-5-1.89-5-4.22 2.24-4.21 5-4.21zm-14 2.43c-.5522847 0-1-.4477153-1-1 0-6.54 6.29-9.76 6.55-9.89.3211808-.19326073.7234705-.1906728 1.0421383.0067041.3186678.1973768.5001928.5563928.4702434.9300368s-.2663431.6991617-.6123817.8432591c-.06.03-5.45 2.82-5.45 8.11 0 .5522847-.4477153 1-1 1zm6 13c-2.76 0-5-1.89-5-4.21s2.24-4.22 5-4.22 5 1.89 5 4.22-2.24 4.21-5 4.21zm8 6c-1.7611283-.1230327-3.0972092-1.6372578-3-3.4 0-1.6 1.06-4.6 3-4.6s3 3 3 4.6c.0972092 1.7627422-1.2388717 3.2769673-3 3.4zm8-6c-2.76 0-5-1.89-5-4.21s2.24-4.22 5-4.22 5 1.89 5 4.22-2.24 4.21-5 4.21z"/><path id="Shape" d="m28 34c-.6274346.7110467-.9818443 1.6218798-1 2.57 0 .76.46 1.4 1 1.4s1-.64 1-1.4c-.0181557-.9481202-.3725654-1.8589533-1-2.57z"/></g></svg>