<svg id="Layer_1" height="512" viewBox="0 0 100 100" width="512" xmlns="http://www.w3.org/2000/svg"><path d="m38.3325 82.4668c-.0498 0-.1001-.0039-.1499-.0112-.3145-.0479-.5874-.2422-.7354-.5234l-3.5371-6.7285c-1.8408-3.502-4.9053-6.5664-8.4077-8.4077l-6.7271-3.5361c-.2813-.1479-.4756-.4209-.5234-.7349-.0479-.3145.0571-.6328.2817-.8574l6.7583-6.7583c2.0122-2.0132 5.291-2.3477 8.7715-.8931l2.8491 1.1904c.5093.2129.75.7988.5371 1.3086-.2129.5093-.7979.751-1.3086.5371l-2.8491-1.1904c-2.6631-1.1143-5.187-.9365-6.5859.4614l-5.7979 5.7979 5.5249 2.9043c3.8521 2.0254 7.2227 5.396 9.2476 9.2476l2.9053 5.5264 5.7979-5.7983c1.3984-1.3979 1.5752-3.9219.4614-6.5859l-1.3315-3.1865c-.2129-.5098.0278-1.0957.5371-1.3086.5093-.2124 1.0952.0283 1.3086.5371l1.3315 3.1865c1.4541 3.4795 1.1206 6.7588-.8931 8.7715l-6.7583 6.7588c-.1889.1887-.4438.2927-.707.2927z"/><path d="m30.4512 76.6099c-1.6968-.0005-3.2925-.6611-4.4927-1.8613-2.4775-2.4775-2.4775-6.5083 0-8.9858l48.0688-48.0684c.1016-.1021.2246-.1807.3594-.2305l12.0352-4.4639c.3643-.1367.7783-.0464 1.0547.2305.2764.2764.3662.6885.2305 1.0547l-4.4639 12.0356c-.0498.1353-.1289.2578-.2305.3594l-48.0684 48.0683c-1.2002 1.2002-2.7959 1.8609-4.4931 1.8614zm44.8359-57.3467-47.9145 47.9136c-1.6978 1.6978-1.6978 4.46 0 6.1577.8223.8223 1.916 1.2754 3.0786 1.2754 1.1631 0 2.2568-.4531 3.0791-1.2754l47.9141-47.9141 3.6299-9.7876z"/><path d="m81.8193 26.9585c-.2559 0-.5117-.0977-.707-.293l-7.0703-7.0713c-.3906-.3906-.3906-1.0239 0-1.4141.3906-.3906 1.0234-.3906 1.4141 0l7.0703 7.0713c.3906.3906.3906 1.0239 0 1.4141-.1953.1953-.4512.293-.7071.293z"/><path d="m63.4346 45.3433c-.2559 0-.5117-.0977-.707-.293l-7.0703-7.0713c-.3906-.3906-.3906-1.0239 0-1.4141.3906-.3906 1.0234-.3906 1.4141 0l7.0703 7.0713c.3906.3906.3906 1.0239 0 1.4141-.1954.1953-.4513.293-.7071.293z"/><path d="m59.8994 48.8789c-.2559 0-.5117-.0977-.707-.293l-7.0713-7.0713c-.3906-.3906-.3906-1.0234 0-1.4141s1.0234-.3906 1.4141 0l7.0713 7.0713c.3906.3906.3906 1.0234 0 1.4141-.1954.1954-.4512.293-.7071.293z"/><path d="m17.4731 87.0625c-.2559 0-.5117-.0977-.707-.293-.3906-.3906-.3906-1.0234 0-1.4141l8.4854-8.4854c.3906-.3906 1.0234-.3906 1.4141 0s.3906 1.0234 0 1.4141l-8.4854 8.4854c-.1953.1953-.4512.293-.7071.293z"/><path d="m13.2305 85.6484c-.2559 0-.5117-.0977-.707-.293-.3906-.3906-.3906-1.0234 0-1.4141l8.4854-8.4854c.3906-.3906 1.0234-.3906 1.4141 0s.3906 1.0234 0 1.4141l-8.4854 8.4854c-.1954.1954-.4513.293-.7071.293z"/></svg>