<svg viewBox="0 0 32 32" xmlns="http://www.w3.org/2000/svg"><g id="Rocket" fill-rule="nonzero"><path id="Path" d="m15.5038611 3.13175686c.3079152-.17595157.6859886-.17565716.9936294.00077373 4.8493106 2.78106184 7.3831625 6.6502876 7.4983934 11.51807341l.0041161 11.349396c0 .5128358-.3860402.9355072-.8833789.9932723l-4.1186211.0057277-.025147-4.4025754c-.0983929-.7276429-.4564508-1.3732541-.9794297-1.8383718-.5300384-.4713962-1.2282141-.7580528-1.9934233-.7580528-.8284271 0-1.5784271.3357864-2.1213203.8786797-.4976522.4976521-.8212771 1.1693314-.8717586 1.9159219l-.0029211 4.2043984-4.004.001c-.51283584 0-.93550716-.3860402-.99327227-.8833789l-.00672773-11.1166211c0-5.04219067 2.5381319-9.0306836 7.5038611-11.86824314z"/><path id="Path" d="m5.99996339 15.6767021.00695769 10.5286963c.0187331.2770507.07507975.5437857.16397499.79514l-3.17089607-.000542c-.51283584 0-.93550716-.3860371-.99327227-.8833753l-.00672773-4.1166211c0-2.783814 1.62799147-5.1965793 3.99996339-6.3232979z"/><path id="Path" d="m25.999733 15.6735043c2.2862549 1.0859624 3.8904443 3.3747192 3.9948499 6.0485522l.0054171 4.2779435c0 .5128358-.3860402.9355072-.8833789.9932723l-3.2875172.0072661c.0885383-.2503448.1447888-.5159471.1637475-.7918025z"/><path id="Path-15" d="m16 22c.5128358 0 .9355072.3860402.9932723.8833789l.0067277 6.1166211c0 .5522847-.4477153 1-1 1-.5128358 0-.9355072-.3860402-.9932723-.8833789l-.0067277-6.1166211c0-.5522847.4477153-1 1-1z"/></g></svg>