<svg clip-rule="evenodd" stroke-linejoin="round" stroke-miterlimit="2" viewBox="0 0 25 25" xmlns="http://www.w3.org/2000/svg">
<g>
<path d="m8.025 8.343c.016-.048.039-.094.071-.137l4-5.5c.094-.129.244-.206.404-.206s.31.077.404.206l3.997 5.495c.024.033.045.068.06.106l.014.036.001.005c.009.026.015.053.019.08.26 1.628.873 2.846 1.813 3.679.942.835 2.204 1.28 3.726 1.394.045.003.088.012.129.026.078.027.146.072.201.13l.005.006c.054.058.094.13.115.209.011.042.016.087.016.132v7.987c.001.031-.002.063-.007.093-.014.083-.049.159-.098.223-.05.064-.115.116-.192.15-.044.019-.091.033-.141.039s-.099.005-.146-.003c-.083-.014-.159-.049-.223-.098-.064-.05-.116-.115-.15-.192-.012-.028-.023-.058-.03-.088-.338-1.327-.705-2.53-1.215-3.458-.641-1.166-1.521-1.865-2.921-1.708.077.319.121.665.123 1.029v2.522c0 .276-.224.5-.5.5h-3c-.276 0-.5-.224-.5-.5v-.5h-3v.5c0 .276-.224.5-.5.5h-3c-.276 0-.5-.224-.5-.5v-2.561c.003-.17.014-.337.034-.499-1.348-.118-2.205.576-2.832 1.717-.51.928-.877 2.131-1.215 3.458-.007.03-.018.06-.03.088-.034.077-.086.142-.15.192-.064.049-.14.084-.223.098-.047.008-.096.009-.146.003s-.097-.019-.141-.039c-.077-.034-.142-.086-.192-.15-.049-.064-.084-.14-.098-.223-.005-.03-.008-.062-.007-.093v-7.987c0-.045.005-.09.016-.132.021-.079.061-.151.115-.209l.005-.006c.055-.058.123-.103.201-.13.041-.014.084-.023.129-.026 1.522-.114 2.784-.559 3.726-1.394.934-.828 1.545-2.035 1.808-3.647v-.46c0-.053.008-.104.024-.152zm.971 7.657c-.19.002-.353.126-.495.299-.313.383-.501 1.005-.501 1.701v2h2v-2c0-.696-.188-1.318-.501-1.701-.143-.175-.308-.299-.499-.299zm7 0c-.19.002-.353.126-.495.299-.313.383-.501 1.005-.501 1.701v2h2v-2c0-.696-.188-1.318-.501-1.701-.143-.175-.308-.299-.499-.299zm-2.996 3h-1v-3.5l-2-2v-5l2.5-2.5 2.5 2.5v5l-2 2zm-.5-4.5 1.5-1.5v-4l-1.5-1.5-1.5 1.5v4z"/>
</g>
</svg>