<svg viewBox="0 0 64 64" xmlns="http://www.w3.org/2000/svg">
<path d="m20.965 52.742 4.692 4.694 7.927-7.927-2.012-7.374z"/>
<path d="m24.159 31.548-15.952 15.952 3.793 3.793 10.646-10.646c.195-.195.512-.195.707 0s.195.512 0 .707l-10.646 10.646 3.793 3.793 15.952-15.952z"/>
<path d="m7.068 48.386h5.364v11.728h-5.364z" transform="matrix(.707 -.707 .707 .707 -35.505 22.784)"/><path d="m37.264 17.029-5.464-1.092-3.699 3.699 3.278 3.278z"/>
<path d="m21.865 32.428-7.374-2.012-7.927 7.927 4.694 4.692z"/>
<path d="m42.354 22.354c-.098.097-.226.146-.354.146s-.256-.049-.354-.146c-.195-.195-.195-.512 0-.707l10.046-10.046-3.793-3.793-17.376 17.376 8.293 8.293 17.376-17.376-3.793-3.793z"/>
<path d="m57.799 3.5c-3.437 0-6.671 1.289-9.175 3.618l8.259 8.259c2.329-2.504 3.618-5.738 3.618-9.175-.001-1.49-1.213-2.702-2.702-2.702z"/>
<path d="m27.987 26.648h7.001v11.728h-7.001z" transform="matrix(.707 -.707 .707 .707 -13.767 31.788)"/>
<path d="m41.086 32.621 3.278 3.278 3.699-3.699-1.092-5.464z"/>
</svg>