<svg height="512" viewBox="0 0 128 128" width="512" xmlns="http://www.w3.org/2000/svg"><path d="m29.982 70.186 12.267 2.7-8.91 8.91c-.026.026-.044.056-.068.083a1.445 1.445 0 0 0 -.093.114 1.7 1.7 0 0 0 -.143.228c-.013.025-.032.045-.044.071l-3.049 6.508a1.75 1.75 0 0 0 .348 1.979l6.929 6.928a1.751 1.751 0 0 0 1.979.347l6.512-3.048c.028-.013.051-.034.078-.048a1.727 1.727 0 0 0 .22-.138c.041-.03.078-.061.115-.094s.057-.042.082-.067l8.911-8.912 2.7 12.267a1.75 1.75 0 0 0 2.947.861l7.664-7.664a1.744 1.744 0 0 0 .512-1.223l.146-18.207 9.25-9.25 1.412 6.419a1.749 1.749 0 0 0 2.946.861l5.007-5.005a1.751 1.751 0 0 0 .513-1.223l.087-11.018 5.584-5.584 5.2-5.195 5.609-5.609 2.851-2.85a17.383 17.383 0 0 0 4.694-8.585l1.224-5.6a3.863 3.863 0 0 0 -4.6-4.6l-5.6 1.225a17.354 17.354 0 0 0 -8.584 4.694l-2.851 2.85-5.782 5.783-5.025 5.018-.007.008-5.579 5.58-11.016.088a1.755 1.755 0 0 0 -1.224.512l-5.008 5.01a1.749 1.749 0 0 0 .861 2.946l6.419 1.412-.554.554-4.242 4.242-4.45 4.45-18.208.147a1.749 1.749 0 0 0 -1.224.513l-7.667 7.666a1.75 1.75 0 0 0 .861 2.946zm28.21-8.3 3.709-3.709 7.921 7.923-14.95 14.95-9.9 9.9-7.917-7.918zm24.065-24.061 2.276 2.275 5.634 5.634-4.848 4.848-7.232 7.232-.006.006-1.541 1.558-7.918-7.918zm4.182-4.181 1.014-1.014 1.047 1.042-2.721 2.721-1.042-1.042zm6.625-6.626 3.959 3.959 3.959 3.959-3.137 3.137-2.276-2.273-5.636-5.635zm-.415 16.25-1.042-1.042 2.722-2.721 1.042 1.042zm-.8-6.237-2.721 2.721-.885-.885 2.722-2.721zm-25.706 16.9 7.917 7.917-1.76 1.772-7.92-7.92zm-27.318 40.436-5.192-5.192 1.47-3.141 6.863 6.866zm26.618-5.12-4.9 4.9-2.489-11.334 7.5-7.5zm19.276-26.41-2.242 2.243-1.207-5.48 3.5-3.5zm19.291-43.656 5.6-1.225a.364.364 0 0 1 .434.433l-1.225 5.6a13.868 13.868 0 0 1 -3.749 6.858l-1.613 1.613-3.957-3.96-3.959-3.959 1.613-1.612a13.861 13.861 0 0 1 6.856-3.748zm-41.09 26.342 2.242-2.242 6.744-.054-3.5 3.5zm-24.167 17.034 13.935-.112-7.5 7.5-11.333-2.49z"/><path d="m47.984 81.766a1.744 1.744 0 0 0 1.238-.513l12.55-12.553a1.75 1.75 0 1 0 -2.472-2.472l-12.553 12.551a1.75 1.75 0 0 0 1.237 2.987z"/><path d="m26.225 104.25 5.561-5.561a1.75 1.75 0 0 0 -2.474-2.475l-5.562 5.561a1.75 1.75 0 1 0 2.475 2.475z"/><path d="m22.92 113.042a1.752 1.752 0 0 0 2.475 0l9.621-9.623a1.75 1.75 0 1 0 -2.475-2.474l-9.621 9.622a1.749 1.749 0 0 0 0 2.475z"/><path d="m16.2 105.593a1.747 1.747 0 0 0 1.238-.512l9.622-9.623a1.75 1.75 0 0 0 -2.475-2.474l-9.622 9.622a1.75 1.75 0 0 0 1.237 2.987z"/></svg>