<svg id="Layer_1" viewBox="0 0 64 64" xmlns="http://www.w3.org/2000/svg" data-name="Layer 1"><circle cx="18" cy="44" fill="#f7a539" r="2"/><circle cx="7" cy="46" fill="#f7a539" r="2"/><circle cx="29" cy="46" fill="#f7a539" r="2"/><circle cx="40" cy="44" fill="#f7a539" r="2"/><circle cx="51" cy="46" fill="#f7a539" r="2"/><path d="m57 38v14h-56v-14zm-4 8a2 2 0 1 0 -2 2 2.006 2.006 0 0 0 2-2zm-11-2a2 2 0 1 0 -2 2 2.006 2.006 0 0 0 2-2zm-11 2a2 2 0 1 0 -2 2 2.006 2.006 0 0 0 2-2zm-11-2a2 2 0 1 0 -2 2 2.006 2.006 0 0 0 2-2zm-11 2a2 2 0 1 0 -2 2 2.006 2.006 0 0 0 2-2z" fill="#ea8532"/><path d="m63 38v15a4 4 0 0 1 -4 4h-58v-5h56v-14a3 3 0 0 1 6 0z" fill="#b18264"/><path d="m57.88 35.88a2.993 2.993 0 0 0 -.88 2.12c-1.13-14.12-13.84-25-28-25v-3a3 3 0 0 1 3-3 31 31 0 0 1 31 31 3 3 0 0 0 -5.12-2.12z" fill="#c89d84"/><path d="m24.1 17.37a13.667 13.667 0 0 1 4.9-4.37s4.21 2.1 5.58 5.73a6.493 6.493 0 0 1 .42 2.27 6 6 0 0 1 -12 0 6.493 6.493 0 0 1 .42-2.27 7.851 7.851 0 0 1 .68-1.36z" fill="#f2f2f2"/><path d="m34.58 18.73a7.682 7.682 0 0 1 3.42 6.27c0 4.42-4.03 8-9 8s-9-3.58-9-8a7.682 7.682 0 0 1 3.42-6.27 6.493 6.493 0 0 0 -.42 2.27 6 6 0 0 0 12 0 6.493 6.493 0 0 0 -.42-2.27z" fill="#e6e6e6"/><path d="m1 38 23.1-20.63a7.851 7.851 0 0 0 -.68 1.36 7.682 7.682 0 0 0 -3.42 6.27c0 4.42 4.03 8 9 8s9-3.58 9-8a7.682 7.682 0 0 0 -3.42-6.27c-1.37-3.63-5.58-5.73-5.58-5.73 14.16 0 26.87 10.88 28 25z" fill="#f7a539"/><g fill="#252525"><path d="m54 46a1 1 0 0 0 -2 0 1 1 0 0 1 -2 0 1 1 0 0 0 -2 0 3 3 0 0 0 6 0z"/><path d="m37 44a1 1 0 0 0 2 0 1 1 0 0 1 2 0 1 1 0 0 0 2 0 3 3 0 0 0 -6 0z"/><path d="m30 46a1 1 0 0 1 -2 0 1 1 0 0 0 -2 0 3 3 0 0 0 6 0 1 1 0 0 0 -2 0z"/><path d="m8 46a1 1 0 0 1 -2 0 1 1 0 0 0 -2 0 3 3 0 0 0 6 0 1 1 0 0 0 -2 0z"/><path d="m15 44a1 1 0 0 0 2 0 1 1 0 0 1 2 0 1 1 0 0 0 2 0 3 3 0 0 0 -6 0z"/><path d="m32 6a4 4 0 0 0 -4 4v2.411a14.235 14.235 0 0 0 -4.75 4.432 8.963 8.963 0 0 0 -.644 1.257 8.6 8.6 0 0 0 -3.606 6.9c0 4.962 4.486 9 10 9s10-4.038 10-9a8.6 8.6 0 0 0 -3.6-6.9 11.022 11.022 0 0 0 -2.884-3.863c11.94 1.591 21.902 11.112 23.372 22.763h-6.888a1 1 0 0 0 0 2h7v12h-54v-12h42a1 1 0 0 0 0-2h-40.379l13.045-11.65a1 1 0 0 0 -1.332-1.492l-15 13.4a1 1 0 0 0 -.334.742v19a1 1 0 0 0 1 1h58a5.006 5.006 0 0 0 5-5v-15a32.036 32.036 0 0 0 -32-32zm2 15a5.008 5.008 0 0 1 -1.667 3.724 1 1 0 0 0 -.078 1.412 1.168 1.168 0 0 0 1.412.078 7 7 0 0 0 2.3-4.63 6.286 6.286 0 0 1 1.033 3.416c0 3.86-3.589 7-8 7s-8-3.14-8-7a6.286 6.286 0 0 1 1.031-3.416 7 7 0 0 0 2.3 4.63 1 1 0 1 0 1.334-1.49 5.008 5.008 0 0 1 -1.665-3.724 5.5 5.5 0 0 1 .356-1.918 12.584 12.584 0 0 1 4.644-4.938 9.965 9.965 0 0 1 5 6.856zm-4-8.976v-2.024a2 2 0 0 1 2-2 30.038 30.038 0 0 1 29.781 26.438 3.881 3.881 0 0 0 -4.224.419c-2.545-12.541-14.203-22.357-27.557-22.833zm32 40.976a3 3 0 0 1 -3 3h-57v-3h55a1 1 0 0 0 1-1v-14a2 2 0 0 1 4 0z"/><path d="m46.67 27.129a1.131 1.131 0 0 0 1.4.2 1 1 0 0 0 .2-1.4 21.058 21.058 0 0 0 -5.742-5.269 1 1 0 1 0 -1.058 1.7 19.061 19.061 0 0 1 5.2 4.769z"/><circle cx="49.474" cy="29.513" r="1"/></g></svg>