<svg id="Flat" height="512" viewBox="0 0 128 128" width="512" xmlns="http://www.w3.org/2000/svg"><g fill="#ffd07d"><path d="m3.81 121.156c9.7-10.064 39.059-42.573 46.62-50.958a1.462 1.462 0 0 0 -.849-2.422l-21.238-3.5a1.753 1.753 0 0 1 -1.468-1.776 1.754 1.754 0 0 1 1.532-1.691l22.864-2.909a1.462 1.462 0 0 0 1.029-2.266l-22.092-32.686a1.463 1.463 0 0 1 1.212-2.281 1.461 1.461 0 0 1 1 .4l27.44 25.814a1.462 1.462 0 0 0 2.461-.969l1.736-26.279a2.447 2.447 0 0 1 2.321-2.282 2.446 2.446 0 0 1 2.531 2.026l4.2 24.229a1.463 1.463 0 0 0 2.406.85l46.17-40.492a1.8 1.8 0 0 1 1.828-.328 1.8 1.8 0 0 1 .681 2.9l-39.85 43.145a1.463 1.463 0 0 0 1.121 2.454l21.181-.675a2.042 2.042 0 0 1 2.064 1.622 2.043 2.043 0 0 1 -1.482 2.4l-21.208 5.546a1.463 1.463 0 0 0 -.533 2.565l26.549 20.859a1.984 1.984 0 0 1 .177 2.963 1.984 1.984 0 0 1 -2.385.321l-27.3-15.553a1.462 1.462 0 0 0 -2.122 1.7l4.708 15.338a1.931 1.931 0 0 1 -1.188 2.379 1.93 1.93 0 0 1 -2.242-.72l-8.605-12.467a1.462 1.462 0 0 0 -2.657.673l-2.783 25.724a2.165 2.165 0 0 1 -1.661 1.875 2.164 2.164 0 0 1 -2.646-1.911l-2.479-27.142a1.463 1.463 0 0 0 -2.444-.946l-51.773 47.348a1.988 1.988 0 0 1 -2.545.115l-.047-.035a1.984 1.984 0 0 1 -.234-2.958z"/><path d="m112.546 31.423a1.5 1.5 0 0 1 -1.034-2.587l1.249-1.189a1.5 1.5 0 0 1 2.068 2.174l-1.249 1.189a1.5 1.5 0 0 1 -1.034.413z"/><path d="m101.8 41.655a1.5 1.5 0 0 1 -1.034-2.586l8.255-7.86a1.5 1.5 0 1 1 2.068 2.172l-8.255 7.86a1.493 1.493 0 0 1 -1.034.414z"/><path d="m79.327 34.731a1.5 1.5 0 0 1 -1.09-2.53l12.651-13.385a1.5 1.5 0 0 1 2.181 2.061l-12.651 13.385a1.5 1.5 0 0 1 -1.091.469z"/><path d="m35.368 110.736a1.5 1.5 0 0 1 -1.09-2.53l20.722-21.928a1.5 1.5 0 0 1 2.181 2.061l-20.722 21.928a1.5 1.5 0 0 1 -1.091.469z"/><path d="m15.991 100.714a1.5 1.5 0 0 1 -1.09-2.53l15.233-16.118a1.5 1.5 0 0 1 2.181 2.061l-15.233 16.117a1.5 1.5 0 0 1 -1.091.47z"/><path d="m10.5 106.523a1.5 1.5 0 0 1 -1.09-2.53l1.792-1.9a1.5 1.5 0 0 1 2.18 2.06l-1.792 1.9a1.5 1.5 0 0 1 -1.09.47z"/></g><path d="m91.276 35.16-19.466 18.278a.651.651 0 0 1 -1.085-.354l-2.475-13.064a.651.651 0 0 0 -1.286.042l-1.809 14.738a.651.651 0 0 1 -1.029.448l-10.769-7.81a.651.651 0 0 0 -.92.894l7.737 11.368a.651.651 0 0 1 -.391 1l-6.8 1.584a.651.651 0 0 0 .031 1.275l6.238 1.13a.651.651 0 0 1 .359 1.086l-20.543 21.936a.651.651 0 0 0 .9.935l22.978-20.039a.651.651 0 0 1 1.077.434l1.132 13.038a.651.651 0 0 0 1.289.061l2.141-11.727a.651.651 0 0 1 1.1-.345l5.742 5.688a.651.651 0 0 0 1.082-.651l-2.6-8.621a.652.652 0 0 1 .829-.807l8.015 2.66a.651.651 0 0 0 .622-1.118l-6.467-5.4a.652.652 0 0 1 .175-1.1l6.217-2.49a.651.651 0 0 0 -.208-1.255l-6.838-.347a.651.651 0 0 1 -.465-1.07l16.433-19.5a.651.651 0 0 0 -.946-.897z" fill="#ff5050"/><path d="m79.368 12.831c-.781-.117-1.745-.889-1.629-1.671s.002-2.028 1.561-2.16c.787-.065 2.487.689 2.126 2.246a1.753 1.753 0 0 1 -2.058 1.585z" fill="#ff9545"/><path d="m21.555 47.275c-.781-.117-1.744-.889-1.628-1.67s0-2.027 1.561-2.157c.786-.066 2.486.688 2.124 2.244a1.752 1.752 0 0 1 -2.057 1.583z" fill="#ffd07d"/><path d="m55.8 112.841c-.966-.144-2.158-1.1-2.014-2.065s0-2.507 1.93-2.668c.973-.082 3.075.851 2.627 2.775a2.166 2.166 0 0 1 -2.543 1.958z" fill="#ff9545"/><path d="m17.624 22.881.931 1.7a.8.8 0 0 0 .32.32l1.7.93a.806.806 0 0 1 0 1.414l-1.7.93a.8.8 0 0 0 -.32.32l-.931 1.7a.806.806 0 0 1 -1.413 0l-.931-1.7a.808.808 0 0 0 -.32-.32l-1.7-.93a.806.806 0 0 1 0-1.414l1.7-.93a.808.808 0 0 0 .32-.32l.931-1.7a.8.8 0 0 1 1.413 0z" fill="#ffd07d"/><path d="m104.08 95.713.892 1.632a.781.781 0 0 0 .307.307l1.632.892a.773.773 0 0 1 0 1.356l-1.632.892a.775.775 0 0 0 -.307.307l-.892 1.631a.773.773 0 0 1 -1.356 0l-.892-1.631a.769.769 0 0 0 -.307-.307l-1.631-.892a.773.773 0 0 1 0-1.356l1.631-.892a.775.775 0 0 0 .307-.307l.892-1.632a.773.773 0 0 1 1.356 0z" fill="#ffd07d"/><path d="m89.958 106.392 1.426 2.608a1.247 1.247 0 0 0 .491.491l2.608 1.426a1.234 1.234 0 0 1 0 2.166l-2.608 1.426a1.247 1.247 0 0 0 -.491.491l-1.426 2.608a1.234 1.234 0 0 1 -2.166 0l-1.426-2.608a1.247 1.247 0 0 0 -.491-.491l-2.608-1.426a1.234 1.234 0 0 1 0-2.166l2.608-1.426a1.247 1.247 0 0 0 .491-.491l1.426-2.608a1.234 1.234 0 0 1 2.166 0z" fill="#ffd07d"/></svg>